<svg width="141" height="44" viewBox="0 0 141 44" fill="none" xmlns="http://www.w3.org/2000/svg">
<path d="M56.6154 33.9073H53.2949L51.0718 20.1878H54.0594L55.1757 28.9995C55.2798 29.9543 55.3519 30.8171 55.3911 31.5897C55.6981 30.902 55.9441 30.36 56.1305 29.9636C56.317 29.568 57.9933 26.3089 61.1595 20.1878H64.1762L56.6154 33.9073Z" fill="#009247"/>
<path d="M63.1289 33.9073L65.8024 20.1878H68.6914L66.0084 33.9073H63.1289Z" fill="#009247"/>
<path d="M72.2766 28.3282C72.2766 29.4512 72.5555 30.3195 73.114 30.9332C73.6725 31.5468 74.4707 31.8529 75.5086 31.8529C77.2453 31.8529 78.6098 31.0157 79.6023 29.3406L81.8254 30.4799C80.4546 32.8949 78.2832 34.1019 75.3128 34.1019C74.0657 34.1019 72.9902 33.8683 72.0855 33.4011C71.1807 32.9338 70.4953 32.2672 70.0284 31.4004C69.5616 30.5337 69.3281 29.5228 69.3281 28.3671C69.3281 26.731 69.6712 25.2692 70.3566 23.9804C71.0421 22.6923 72.0001 21.7033 73.2315 21.0156C74.4621 20.328 75.8611 19.9838 77.4278 19.9838C78.9294 19.9838 80.1616 20.3039 81.1251 20.9424C82.0878 21.5818 82.7364 22.5342 83.0694 23.8005L80.3857 24.492C80.1961 23.7974 79.8334 23.2491 79.2984 22.8465C78.7626 22.4439 78.1101 22.243 77.3393 22.243C75.7593 22.243 74.5201 22.7881 73.6224 23.8792C72.7254 24.9686 72.2766 26.4522 72.2766 28.3282Z" fill="#009247"/>
<path d="M91.6007 22.4081L89.3479 33.9073H86.4582L88.711 22.4081H84.2546L84.6855 20.1878H96.4974L96.0665 22.4081H91.6007Z" fill="#009247"/>
<path d="M103.814 19.983C105.727 19.983 107.235 20.4876 108.338 21.4969C109.442 22.5062 109.993 23.8807 109.993 25.6205C109.993 27.2239 109.649 28.6857 108.96 30.0072C108.272 31.328 107.31 32.3412 106.076 33.0452C104.842 33.7499 103.431 34.1012 101.845 34.1012C100.585 34.1012 99.4897 33.8675 98.5591 33.4003C97.6285 32.933 96.9204 32.2625 96.4339 31.3895C95.9475 30.5165 95.7039 29.4956 95.7039 28.3274C95.7039 26.8018 96.0485 25.379 96.7371 24.0575C97.4264 22.7367 98.3805 21.7274 99.6017 21.0297C100.824 20.3319 102.227 19.983 103.814 19.983ZM103.677 22.2515C102.619 22.2515 101.717 22.4953 100.973 22.982C100.229 23.4687 99.6542 24.2023 99.25 25.1828C98.845 26.1633 98.6429 27.1858 98.6429 28.2503C98.6429 29.445 98.9367 30.3421 99.5242 30.9425C100.112 31.5429 100.931 31.8428 101.982 31.8428C103.034 31.8428 103.931 31.599 104.675 31.1123C105.42 30.6256 105.996 29.9021 106.404 28.9411C106.812 27.9801 107.016 26.9514 107.016 25.8541C107.016 24.7116 106.73 23.8254 106.159 23.1962C105.588 22.5669 104.761 22.2515 103.677 22.2515Z" fill="#009247"/>
<path d="M120.219 33.9073L117.966 28.7075H114.577L113.568 33.9073H110.679L113.363 20.1878H119.739C120.777 20.1878 121.667 20.3467 122.408 20.6652C123.149 20.9829 123.713 21.4377 124.098 22.028C124.483 22.6191 124.676 23.313 124.676 24.112C124.676 25.1828 124.322 26.0916 123.613 26.8384C122.905 27.5853 121.943 28.0494 120.729 28.2309L123.413 33.9073H120.219ZM118.868 26.4677C119.815 26.4677 120.531 26.2777 121.018 25.8985C121.504 25.5184 121.747 24.978 121.747 24.2771C121.747 23.6736 121.54 23.2125 121.125 22.8948C120.711 22.5771 120.128 22.4174 119.377 22.4174H115.812L115.018 26.4677H118.868Z" fill="#009247"/>
<path d="M131.541 33.9073H128.662L129.758 28.2791L126.135 20.1878H128.995L131.531 26.0784L136.174 20.1878H139.338L132.639 28.2791L131.541 33.9073Z" fill="#009247"/>
<path d="M51.9304 12.3177L51.8693 12.6338H50.4147L49.9165 15.1757H49.5264L50.0857 12.3169H51.9304V12.3177Z" fill="white"/>
<path d="M56.8371 12.32C57.1512 12.32 57.4003 12.3901 57.5836 12.531C57.7669 12.672 57.8593 12.8644 57.8593 13.1097C57.8593 13.4072 57.7559 13.6408 57.5484 13.8105C57.3408 13.9803 57.058 14.0652 56.6984 14.0652H55.8336L55.6167 15.1781H55.2266L55.7835 12.3192H56.8371V12.32ZM55.894 13.7584H56.6836C57.2037 13.7584 57.463 13.5481 57.463 13.1276C57.463 12.9664 57.4089 12.8433 57.3016 12.7584C57.1943 12.6736 57.0353 12.6307 56.8261 12.6307H56.1141L55.894 13.7584Z" fill="white"/>
<path d="M61.5802 15.2185C61.4948 15.2185 61.411 15.2045 61.3296 15.1757C61.2481 15.1477 61.1776 15.1095 61.1196 15.062L61.2927 14.784C61.4055 14.8642 61.5113 14.9039 61.6092 14.9039C61.6836 14.9039 61.7494 14.8899 61.8058 14.8611C61.8622 14.8331 61.9225 14.784 61.9876 14.7139C62.0518 14.6438 62.1795 14.4818 62.3698 14.2264L61.5802 12.3192H62.0048L62.6111 13.9095L63.7046 12.3192H64.1433L62.5602 14.5325C62.416 14.7287 62.297 14.8712 62.2038 14.9592C62.1105 15.048 62.015 15.1134 61.9163 15.1547C61.8176 15.1975 61.7056 15.2185 61.5802 15.2185Z" fill="white"/>
<path d="M69.307 15.1781L69.8029 12.6463H68.2378L67.7419 15.1781H67.3518L67.9111 12.3192H70.2556L69.6963 15.1781H69.307Z" fill="white"/>
<path d="M75.7626 15.1781L76.2584 12.6463H74.6933L74.1975 15.1781H73.8074L74.3667 12.3192H76.7112L76.1519 15.1781H75.7626Z" fill="white"/>
<path d="M82.2987 15.1781L82.1452 14.3424H80.8409L80.3513 15.1781H79.9268L81.6571 12.3192H82.0997L82.6958 15.1781H82.2987ZM81.8279 12.612C81.8099 12.6471 81.7848 12.6938 81.7519 12.7522C81.719 12.8106 81.4731 13.2397 81.0132 14.0403H82.0888L81.8804 12.9181L81.8279 12.612Z" fill="white"/>
<path d="M91.6219 12.32H92.012L91.7668 13.5761C91.8647 13.5761 91.9462 13.5629 92.0104 13.5364C92.0747 13.5099 92.1436 13.464 92.2157 13.3978C92.2877 13.3316 92.4272 13.179 92.634 12.9391L93.1729 12.32H93.5935L92.8611 13.1618C92.6684 13.3861 92.5157 13.5372 92.4037 13.6143L93.1322 15.1788H92.7013L92.0833 13.8051C92.0371 13.8215 91.9775 13.8362 91.9055 13.8495C91.8334 13.8627 91.7684 13.8697 91.7096 13.8697L91.4566 15.1781H91.0649L91.6219 12.32Z" fill="white"/>
<path d="M98.6939 12.2772C99.0707 12.2772 99.3683 12.3831 99.5869 12.5957C99.8054 12.8083 99.9143 13.0933 99.9143 13.4515C99.9073 13.8137 99.8313 14.1275 99.6856 14.3915C99.5399 14.6563 99.3409 14.8595 99.0879 15.0028C98.8349 15.1461 98.5474 15.2178 98.227 15.2178C97.8408 15.2178 97.5408 15.1111 97.327 14.8985C97.1131 14.6851 97.0066 14.3907 97.0066 14.0146C97.0066 13.6914 97.0787 13.3939 97.222 13.1229C97.3654 12.8519 97.5659 12.6432 97.8228 12.496C98.079 12.3504 98.3696 12.2772 98.6939 12.2772ZM98.6751 12.5895C98.4033 12.5895 98.1722 12.6494 97.9818 12.7701C97.7923 12.8908 97.6466 13.0707 97.5463 13.3098C97.4453 13.5489 97.3951 13.7911 97.3951 14.0364C97.3951 14.3191 97.4672 14.5348 97.6121 14.6828C97.757 14.8307 97.9677 14.9047 98.2435 14.9047C98.5114 14.9047 98.7393 14.8463 98.9281 14.7295C99.1161 14.6127 99.2626 14.4367 99.3668 14.203C99.471 13.9694 99.5227 13.7218 99.5227 13.4609C99.5227 13.1813 99.449 12.9656 99.301 12.8161C99.1553 12.6642 98.9461 12.5895 98.6751 12.5895Z" fill="white"/>
<path d="M106.03 15.1781L106.397 13.2958C106.447 13.0458 106.49 12.8425 106.53 12.6868C106.406 12.9422 106.307 13.1315 106.233 13.2545L105.115 15.1781H104.862L104.484 13.2545C104.476 13.2156 104.448 13.0256 104.4 12.6868C104.388 12.7678 104.368 12.8947 104.339 13.0668C104.311 13.2389 104.175 13.9429 103.931 15.1781H103.584L104.141 12.3192H104.623L105.008 14.3012C105.019 14.3541 105.041 14.4927 105.074 14.717L105.286 14.2848L106.414 12.3192H106.937L106.38 15.1781H106.03Z" fill="white"/>
<path d="M112.448 15.1781L112.944 12.6463H111.379L110.883 15.1781H110.493L111.052 12.3192H113.397L112.838 15.1781H112.448Z" fill="white"/>
<path d="M118.985 15.1781L118.833 14.3424H117.528L117.039 15.1781H116.614L118.345 12.3192H118.787L119.383 15.1781H118.985ZM118.515 12.612C118.497 12.6471 118.472 12.6938 118.439 12.7522C118.407 12.8106 118.161 13.2397 117.701 14.0403H118.776L118.568 12.9181L118.515 12.612Z" fill="white"/>
<path d="M125.118 15.1781L125.377 13.8534H123.812L123.553 15.1781H123.163L123.722 12.3192H124.112L123.876 13.5286H125.441L125.677 12.3192H126.057L125.498 15.1781H125.118Z" fill="white"/>
<path d="M129.608 15.1781L130.165 12.3192H130.516L130.151 14.1937C130.114 14.3814 130.073 14.5667 130.026 14.7497L132.02 12.3192H132.473L131.916 15.1781H131.569L131.938 13.2794L132.052 12.7639L130.077 15.1781H129.608Z" fill="white"/>
<path d="M136.025 15.1781L136.582 12.3192H136.933L136.568 14.1937C136.531 14.3814 136.49 14.5667 136.443 14.7497L138.437 12.3192H138.89L138.333 15.1781H137.986L138.355 13.2794L138.469 12.7639L136.494 15.1781H136.025ZM137.776 12.0739C137.593 12.0739 137.441 12.0342 137.321 11.9555C137.199 11.8761 137.105 11.7515 137.035 11.581L137.335 11.4571C137.392 11.5911 137.46 11.6861 137.539 11.7429C137.618 11.7998 137.717 11.8278 137.837 11.8278C137.964 11.8278 138.075 11.7943 138.171 11.7266C138.269 11.6588 138.341 11.5623 138.392 11.4361L138.602 11.5093C138.548 11.6799 138.447 11.8161 138.299 11.9189C138.152 12.0225 137.977 12.0739 137.776 12.0739Z" fill="white"/>
<path d="M31.3921 13.7085L34.6656 25.4032L32.6893 24.7887C32.2765 25.9312 31.8127 27.0565 31.2472 28.146C29.809 30.9153 27.4715 34.9897 23.7984 38.3914C20.6165 41.3366 17.1816 43.0655 13.7365 43.0655C11.439 43.0655 9.1368 42.2961 6.9043 40.6054C16.9819 37.5768 20.2617 29.508 23.789 22.0218L21.9991 21.465L31.3921 13.7085Z" fill="#009247"/>
<path d="M3.00879 33.0584C3.21637 34.9407 3.85479 37.1212 5.43712 39.0751L6.35519 38.7994C6.93877 38.6242 7.49416 38.4287 8.02839 38.2185C6.09042 36.8027 4.38746 35.0622 3.00879 33.0584Z" fill="#009247"/>
<path d="M5.79674 27.6242C2.19575 19.9402 4.92489 10.9393 11.8519 6.42478C7.06965 11.2952 5.55234 18.7814 8.61517 25.3167C10.1482 28.5883 12.6055 31.1341 15.532 32.803C16.1516 32.0686 16.7219 31.2945 17.2561 30.4885C14.7408 28.987 12.6329 26.7504 11.3004 23.9072C8.0637 16.9996 10.5163 8.90903 16.7438 4.85168C12.4449 9.22988 11.0811 15.9592 13.8337 21.8333C14.9978 24.3176 16.7556 26.3346 18.858 27.8072C19.6688 26.3182 20.4122 24.7623 21.1548 23.179L18.1037 22.2305L20.7874 20.0142L30.1803 12.2585L32.4348 10.3965L33.2204 13.2039L36.494 24.8986L37.4293 28.2402L34.0993 27.2045L33.8181 27.1172C33.533 27.7948 33.24 28.4224 32.933 29.0127C31.4297 31.9066 28.981 36.1711 25.091 39.7729C24.9759 39.8796 24.8599 39.9832 24.7448 40.0859C26.1885 39.7853 27.6204 39.3212 29.0147 38.6748C38.8174 34.1347 43.0615 22.5545 38.4946 12.8091C35.1741 5.72234 28.11 1.55753 20.7333 1.55753C17.965 1.55753 15.1521 2.14393 12.477 3.38294C2.67437 7.92312 -1.56973 19.5033 2.99632 29.2487C4.59354 32.6581 7.05947 35.3885 10.0079 37.3065C11.1226 36.7139 12.1237 36.0372 13.0308 35.2888C9.96485 33.6261 7.38534 31.0142 5.79674 27.6242Z" fill="#92C83E"/>
</svg>
